<svg xmlns="http://www.w3.org/2000/svg" version="1.1" xmlns:xlink="http://www.w3.org/1999/xlink" xmlns:svgjs="http://svgjs.dev/svgjs" width="1500" height="1500" viewBox="0 0 1500 1500"><rect width="1500" height="1500" fill="#ffffff"></rect><g transform="matrix(0.6666666666666666,0,0,0.6666666666666666,249.39393939393943,663.6391803079418)"><svg viewBox="0 0 396 68" data-background-color="#c8c8c8" preserveAspectRatio="xMidYMid meet" height="257" width="1500" xmlns="http://www.w3.org/2000/svg" xmlns:xlink="http://www.w3.org/1999/xlink"><g id="tight-bounds" transform="matrix(1,0,0,1,0.2400000000000091,0.2755004225289497)"><svg viewBox="0 0 395.52 67.44899915494211" height="67.44899915494211" width="395.52"><g><svg viewBox="0 0 494.19191869677354 84.27576432685554" height="67.44899915494211" width="395.52"><g transform="matrix(1,0,0,1,98.67191869677359,11.647374085694217)"><svg viewBox="0 0 395.52 60.9810161554671" height="60.9810161554671" width="395.52"><g id="textblocktransform"><svg viewBox="0 0 395.52 60.9810161554671" height="60.9810161554671" width="395.52" id="textblock"><g><svg viewBox="0 0 395.52 60.9810161554671" height="60.9810161554671" width="395.52"><g transform="matrix(1,0,0,1,0,0)"><svg width="395.52" viewBox="2.22 -31.59 208.53 32.15" height="60.9810161554671" data-palette-color="#000000"><path d="M2.22 0L2.22 0 2.22-0.76Q4.32-0.85 5.37-1.12 6.42-1.39 6.76-2.1 7.1-2.81 7.1-4.22L7.1-4.22 7.1-24.34Q7.1-25.73 6.75-26.44 6.4-27.15 5.36-27.43 4.32-27.71 2.22-27.81L2.22-27.81 2.22-28.54Q3.22-28.52 4.96-28.47 6.69-28.42 8.94-28.42L8.94-28.42Q11.23-28.42 12.92-28.47 14.6-28.52 15.6-28.54L15.6-28.54 15.6-27.81Q13.57-27.71 12.56-27.43 11.55-27.15 11.21-26.44 10.86-25.73 10.86-24.34L10.86-24.34 10.86-14.89 12.52-14.89Q14.84-14.89 16.17-15.33 17.5-15.77 18.52-16.67 19.53-17.58 20.85-18.95L20.85-18.95 23.75-21.97Q25.88-24.17 26.25-25.32 26.61-26.46 25.37-26.98 24.12-27.49 21.36-27.81L21.36-27.81 21.36-28.54Q22.61-28.54 24.24-28.48 25.88-28.42 27.54-28.42L27.54-28.42Q29.3-28.42 30.7-28.45 32.1-28.49 33.25-28.54L33.25-28.54 33.25-27.81Q30.93-27.54 29.41-26.42 27.88-25.29 26.27-23.56L26.27-23.56 18.8-15.6Q20-15.21 20.91-14.7 21.83-14.18 22.72-13.23 23.61-12.28 24.71-10.62L24.71-10.62 28.66-4.42Q29.98-2.42 31.05-1.68 32.13-0.95 34.03-0.76L34.03-0.76 34.03 0Q32.62-0.02 31.13-0.07 29.64-0.12 27.83-0.12L27.83-0.12Q25.73-0.12 24.35-0.07 22.97-0.02 22.05 0L22.05 0 22.05-0.76Q26.49-1.2 24.98-3.32L24.98-3.32 21.39-8.59Q19.85-10.89 18.66-12.07 17.48-13.26 16.1-13.7 14.72-14.14 12.52-14.14L12.52-14.14 10.86-14.14 10.86-4.22Q10.86-2.86 11.21-2.14 11.55-1.42 12.56-1.14 13.57-0.85 15.6-0.76L15.6-0.76 15.6 0Q14.6-0.05 12.92-0.09 11.23-0.12 8.94-0.12L8.94-0.12Q6.69-0.12 4.96-0.09 3.22-0.05 2.22 0ZM36.5 0L36.5 0 36.5-0.76Q38.3-0.81 39.02-1.39 39.74-1.98 39.74-3.66L39.74-3.66 39.74-16.48Q39.74-17.99 39.01-18.88 38.28-19.78 36.5-20.02L36.5-20.02 36.5-20.78Q37.28-20.7 37.95-20.68 38.62-20.65 39.23-20.65L39.23-20.65Q41.72-20.65 43.38-21.22L43.38-21.22 43.38-3.66Q43.38-1.98 44.11-1.39 44.85-0.81 46.68-0.76L46.68-0.76 46.68 0Q45.94-0.05 44.49-0.11 43.04-0.17 41.6-0.17L41.6-0.17Q40.16-0.17 38.69-0.11 37.23-0.05 36.5 0ZM41.77-25.71L41.77-25.71Q40.79-25.71 40.11-26.48 39.43-27.25 39.43-28.27L39.43-28.27Q39.43-29.32 40.11-30.05 40.79-30.79 41.77-30.79L41.77-30.79Q42.7-30.79 43.38-30.05 44.06-29.32 44.06-28.27L44.06-28.27Q44.06-27.25 43.38-26.48 42.7-25.71 41.77-25.71ZM48.73 0L48.73 0 48.73-0.76Q50.87-0.73 51.69-1.42 52.51-2.1 52.51-3.66L52.51-3.66 52.51-16.48Q52.51-18.29 51.66-19.08 50.8-19.87 48.73-20.02L48.73-20.02 48.73-20.78Q49.43-20.68 50.18-20.67 50.92-20.65 51.68-20.65L51.68-20.65Q52.85-20.65 53.99-20.78 55.12-20.9 56.15-21.22L56.15-21.22 56.15-16.82Q57.15-19.17 58.91-20.25 60.66-21.34 62.79-21.34L62.79-21.34Q65.82-21.34 67.45-18.98 69.09-16.63 69.09-12.18L69.09-12.18 69.09-3.66Q69.09-2.03 69.9-1.38 70.72-0.73 72.87-0.76L72.87-0.76 72.87 0Q72.07-0.05 70.45-0.11 68.84-0.17 67.3-0.17L67.3-0.17Q65.89-0.17 64.57-0.11 63.25-0.05 62.57 0L62.57 0 62.57-0.76Q64.25-0.73 64.85-1.38 65.45-2.03 65.45-3.66L65.45-3.66 65.45-14.16Q65.45-17.21 64.41-18.63 63.37-20.04 61.3-20.04L61.3-20.04Q58.1-20.04 56.15-15.06L56.15-15.06 56.15-3.66Q56.15-2.1 56.77-1.42 57.39-0.73 59.03-0.76L59.03-0.76 59.03 0Q58.1-0.05 56.88-0.11 55.66-0.17 54.29-0.17L54.29-0.17Q52.8-0.17 51.34-0.13 49.87-0.1 48.73 0ZM86.47 0.56L86.47 0.56Q83.51 0.56 81.17-0.84 78.83-2.25 77.47-4.71 76.12-7.18 76.12-10.35L76.12-10.35Q76.12-13.48 77.46-15.97 78.8-18.46 81.14-19.9 83.49-21.34 86.47-21.34L86.47-21.34Q89.45-21.34 91.79-19.9 94.13-18.46 95.49-15.97 96.84-13.48 96.84-10.35L96.84-10.35Q96.84-7.25 95.49-4.77 94.13-2.29 91.79-0.87 89.45 0.56 86.47 0.56ZM86.47-0.17L86.47-0.17Q88.35-0.17 89.8-1.54 91.25-2.91 92.08-5.21 92.91-7.52 92.91-10.35L92.91-10.35Q92.91-13.21 92.08-15.53 91.25-17.85 89.8-19.21 88.35-20.58 86.47-20.58L86.47-20.58Q84.61-20.58 83.16-19.21 81.71-17.85 80.88-15.53 80.05-13.21 80.05-10.35L80.05-10.35Q80.05-7.5 80.88-5.19 81.71-2.88 83.16-1.53 84.61-0.17 86.47-0.17ZM114.2-15.89L109.27 0.51 108.58 0.51 102.48-16.48Q101.99-17.87 101.06-18.88 100.14-19.9 99.57-19.97L99.57-19.97 99.57-20.75Q100.28-20.65 101.47-20.63 102.65-20.61 103.99-20.61L103.99-20.61Q107.07-20.61 109.12-20.75L109.12-20.75 109.12-19.97Q107.05-19.95 106.48-18.91 105.92-17.87 106.8-15.41L106.8-15.41 110.29-5.49 114.83-20.92 116.3-20.92 121.79-5.59 124.26-14.33Q124.97-16.8 124.9-17.94 124.84-19.09 124.11-19.47 123.38-19.85 122.06-19.97L122.06-19.97 122.04-20.75Q123.45-20.68 124.17-20.67 124.89-20.65 125.77-20.65L125.77-20.65Q126.92-20.65 127.92-20.67 128.92-20.68 129.65-20.75L129.65-20.75 129.65-19.97Q126.53-19.21 125.45-15.58L125.45-15.58 120.74 0.51 120.08 0.51 114.2-15.89ZM137.9 0.56L137.9 0.56Q135.46 0.56 134.01-0.85 132.56-2.27 132.56-5L132.56-5Q132.56-6.96 133.3-8.11 134.05-9.25 135.24-9.88 136.44-10.5 137.8-10.85 139.17-11.21 140.44-11.54 141.71-11.87 142.58-12.44 143.44-13.01 143.64-14.09L143.64-14.09Q143.47-17.04 142.6-18.68 141.74-20.31 140.12-20.31L140.12-20.31Q138.56-20.31 137.4-19.84 136.24-19.36 136.24-18.55L136.24-18.55Q136.24-17.8 136.78-16.89 137.32-15.99 137.32-15.19L137.32-15.19Q137.32-14.43 136.82-13.99 136.32-13.55 135.49-13.55L135.49-13.55Q134.53-13.55 133.95-14.21 133.36-14.87 133.36-15.99L133.36-15.99Q133.36-17.43 134.39-18.65 135.41-19.87 137.17-20.61 138.93-21.34 141.08-21.34L141.08-21.34Q144.49-21.34 145.9-18.97 147.3-16.6 147.3-12.26L147.3-12.26 147.3-2.51Q147.3-0.61 148.47-0.61L148.47-0.61Q149.13-0.61 149.74-0.79 150.35-0.98 150.77-1.88L150.77-1.88 151.18-1.22Q150.28-0.12 149.41 0.22 148.55 0.56 147.18 0.56L147.18 0.56Q143.71 0.56 143.71-3.13L143.71-3.13Q142.66-1.42 141.22-0.43 139.78 0.56 137.9 0.56ZM139.56-1.17L139.56-1.17Q140.73-1.17 141.82-1.78 142.91-2.39 143.69-3.98L143.69-3.98 143.69-12.52Q143.69-12.92 143.69-13.31L143.69-13.31Q143.42-12.04 142.6-11.52 141.78-11.01 140.73-10.74 139.68-10.47 138.67-10.03 137.66-9.59 137-8.52 136.34-7.45 136.34-5.25L136.34-5.25Q136.34-3.25 137.21-2.21 138.07-1.17 139.56-1.17ZM159.63 0.56L159.63 0.56Q157.14 0.56 156.06-0.9 154.99-2.37 154.99-5.69L154.99-5.69 154.99-19.97 151.65-19.97 151.65-20.73 154.99-20.73 154.99-26.88Q155.94-26.86 156.87-27.04 157.8-27.22 158.63-27.47L158.63-27.47 158.63-20.73 163.49-20.73 163.49-19.97 158.63-19.97 158.63-3.03Q158.63-1.83 159.08-1.26 159.53-0.68 160.63-0.68L160.63-0.68Q161.7-0.68 162.53-1.95 163.36-3.22 163.68-5.13L163.68-5.13 164.24-4.96Q163.32 0.56 159.63 0.56ZM175.67 0.56L175.67 0.56Q171.64 0.56 169.18-2.33 166.73-5.22 166.73-10.08L166.73-10.08Q166.73-13.43 167.9-15.95 169.07-18.48 171.19-19.91 173.3-21.34 176.11-21.34L176.11-21.34Q179.08-21.34 181.11-19.81 183.14-18.29 183.14-15.97L183.14-15.97Q183.14-14.4 182.49-13.35 181.84-12.3 180.77-12.3L180.77-12.3Q179.89-12.3 179.34-12.83 178.79-13.35 178.79-14.26L178.79-14.26Q178.79-15.21 179.4-16.36 180.01-17.5 180.01-18.63L180.01-18.63Q180.01-19.48 179.04-19.93 178.06-20.39 176.62-20.39L176.62-20.39Q173.74-20.39 172.17-17.72 170.61-15.06 170.61-10.4L170.61-10.4Q170.61-5.79 172.22-3.27 173.84-0.76 176.81-0.76L176.81-0.76Q178.84-0.76 180.37-1.68 181.89-2.61 182.72-4.93L182.72-4.93 183.43-4.13Q182.6-1.76 180.54-0.6 178.47 0.56 175.67 0.56ZM186.11 0L186.11 0 186.11-0.76Q188.36-0.73 189.18-1.38 189.99-2.03 189.99-3.66L189.99-3.66 189.99-26.83Q189.99-28.74 189.15-29.49 188.31-30.25 186.11-30.37L186.11-30.37 186.11-31.15Q186.89-31.08 187.64-31.05 188.38-31.03 189.12-31.03L189.12-31.03Q191.58-31.03 193.63-31.59L193.63-31.59 193.63-16.67Q194.66-19.12 196.45-20.23 198.25-21.34 200.4-21.34L200.4-21.34Q203.5-21.34 205.17-18.98 206.84-16.63 206.84-12.18L206.84-12.18 206.84-3.66Q206.84-2.03 207.68-1.38 208.52-0.73 210.75-0.76L210.75-0.76 210.75 0Q209.92-0.05 208.27-0.11 206.62-0.17 205.06-0.17L205.06-0.17Q203.64-0.17 202.29-0.11 200.93-0.05 200.27 0L200.27 0 200.27-0.76Q201.98-0.73 202.6-1.38 203.23-2.03 203.23-3.66L203.23-3.66 203.23-14.16Q203.23-17.21 202.15-18.63 201.08-20.04 198.95-20.04L198.95-20.04Q197.37-20.04 196-18.76 194.63-17.48 193.63-14.89L193.63-14.89 193.63-3.66Q193.63-2.03 194.27-1.38 194.9-0.73 196.61-0.76L196.61-0.76 196.61 0Q195.81-0.05 194.47-0.11 193.14-0.17 191.78-0.17L191.78-0.17Q190.34-0.17 188.76-0.13 187.19-0.1 186.11 0Z" opacity="1" transform="matrix(1,0,0,1,0,0)" fill="#000000" class="wordmark-text-0" data-fill-palette-color="primary" id="text-0"></path></svg></g></svg></g></svg></g></svg></g><g><svg viewBox="0 0 84.27576432685554 84.27576432685554" height="84.27576432685554" width="84.27576432685554"><g><svg xmlns="http://www.w3.org/2000/svg" xmlns:xlink="http://www.w3.org/1999/xlink" version="1.1" x="0" y="0" viewBox="0 0 100 100" style="enable-background:new 0 0 100 100;" xml:space="preserve" height="84.27576432685554" width="84.27576432685554" class="icon-icon-0" data-fill-palette-color="accent" id="icon-0"><path d="M87.427 25H75.086L87.5 12.549 75.232 0H57.837L70.301 12.451 57.531 25H42.773L55.457 12.549 42.92 0H25.244L37.695 12.451 24.927 25H12.402L25.097 12.549 12.549 0H0V100H100V0H87.744L100 12.5zM87.5 87.365H12.5V74.865H87.5zM87.5 62.5H12.5V50H87.5z" fill="#000000" data-fill-palette-color="accent"></path></svg></g></svg></g></svg></g><defs></defs></svg><rect width="395.52" height="67.44899915494211" fill="none" stroke="none" visibility="hidden"></rect></g></svg></g></svg>